<?xml version="1.0" standalone="no"?><!DOCTYPE svg PUBLIC "-//W3C//DTD SVG 1.1//EN" "http://www.w3.org/Graphics/SVG/1.1/DTD/svg11.dtd"><svg t="1602864014041" class="icon" viewBox="0 0 1058 1024" version="1.1" xmlns="http://www.w3.org/2000/svg" p-id="2486" xmlns:xlink="http://www.w3.org/1999/xlink" width="206.640625" height="200"><defs><style type="text/css"></style></defs><path d="M0 0m24.974305 0l1008.919156 0q24.974305 0 24.974306 24.974305l0 0q0 24.974305-24.974306 24.974306l-1008.919156 0q-24.974305 0-24.974305-24.974306l0 0q0-24.974305 24.974305-24.974305Z" p-id="2487" fill="#2c2c2c"></path><path d="M557.723835 192.521412v805.381241a25.562565 25.562565 0 0 1-24.974305 26.097347A25.562565 25.562565 0 0 1 508.042615 997.902653V192.521412a24.974305 24.974305 0 0 1 24.974306-24.974305 24.974305 24.974305 0 0 1 24.706914 24.974305z" p-id="2488" fill="#2c2c2c"></path><path d="M918.968874 493.443075l-372.154585-291.883852a23.530395 23.530395 0 0 0-28.771256 0L139.524546 486.972216a24.974305 24.974305 0 0 1-34.974724-4.919991 25.027784 25.027784 0 0 1 4.866514-34.974723L517.775642 139.043242a25.027784 25.027784 0 0 1 30.429079 0.267391l401.567579 314.986422a24.920827 24.920827 0 0 1 4.278254 35.028201 25.027784 25.027784 0 0 1-35.08168 4.117819z" p-id="2489" fill="#2c2c2c"></path></svg>